<?xml version="1.0" encoding="UTF-8"?>
<svg width="40px" height="49px" viewBox="0 0 40 49" version="1.1" xmlns="http://www.w3.org/2000/svg" xmlns:xlink="http://www.w3.org/1999/xlink">
    <title>logo</title>
    <g id="Page-1" stroke="none" stroke-width="1" fill="none" fill-rule="evenodd">
        <g id="logo" fill-rule="nonzero">
            <path d="M37.6483,14.0799 C36.4757,14.3332 35.4883,14.8398 34.3775,15.2831 C31.6621,16.3596 12.5925,24.1488 11.5434,24.3388 C10.5559,24.1488 5.24856,21.869 3.82915,21.2991 C-0.243963,19.7159 0.00288484,19.0194 0.00288484,14.0799 C0.00288484,10.407 0.00288484,6.67074 0.00288484,2.99782 C-0.0588289,-1.94163 3.89086,0.464768 6.54455,1.54131 C8.45767,2.30123 36.9694,13.51 37.6483,14.0799 Z" id="Path" fill="#29C9EC"></path>
            <path d="M37.8951,34.5975 L2.90342,48.6559 C1.05201,49.1625 0.126305,47.8327 0.126305,46.1229 C0.0645915,42.3866 0.126305,38.6504 0.126305,34.8508 C0.126305,30.2913 -0.429122,29.0881 3.76741,27.4416 L11.6051,24.402 C16.1102,26.1118 20.4301,27.8849 24.7501,29.5947 C26.6015,30.3546 36.6609,34.6608 37.8951,34.5975 Z" id="Path" fill="#EA348B"></path>
            <path d="M37.8952,34.5975 C36.7226,34.6609 26.6015,30.3547 24.7501,29.6581 C20.3684,27.9483 16.1102,26.1751 11.6051,24.4653 L11.6051,24.3387 C12.6542,24.0854 31.7238,16.2963 34.4392,15.283 C35.4883,14.9031 36.5374,14.3965 37.71,14.0798 C40.2403,14.4598 39.9934,16.3596 39.9934,17.8161 L39.9934,30.418 C39.9934,32.8877 40.1169,34.0909 37.8952,34.5975 Z" id="Path" fill="#3B2F92"></path>
        </g>
    </g>
</svg>