<?xml version="1.0" encoding="UTF-8"?>
<svg width="334px" height="260px" viewBox="0 0 334 260" version="1.1" xmlns="http://www.w3.org/2000/svg" xmlns:xlink="http://www.w3.org/1999/xlink">
    <title>welcome-illustration-img</title>
    <g id="Page-1" stroke="none" stroke-width="1" fill="none" fill-rule="evenodd">
        <g id="welcome-illustration-img" fill-rule="nonzero">
            <path d="M260.179,176.133 C258.554,176.133 256.928,176.242 255.339,176.424 C246.708,164.396 236.813,154.19 226.412,147.702 C199.327,130.862 162.129,135.674 127.423,148.65 C103.552,157.543 73.3246,186.266 53.9314,206.605 C28.6516,208.537 9.2222,225.887 10.3778,245.752 C10.6306,250.089 11.8585,254.171 13.8448,257.926 L98.6767,258.509 C98.8211,258.29 98.9656,258.035 99.1101,257.816 L224.931,257.379 C225.076,257.561 225.22,257.743 225.365,257.962 L295.029,257.853 C301.493,249.214 305.357,238.17 305.357,226.105 C305.357,198.513 285.134,176.133 260.179,176.133 Z" id="Path" fill="#3B2F92"></path>
            <path d="M331.576,104.728 C329.193,112.528 327.387,122.661 322.873,127.254 C318.358,131.847 316.733,133.888 316.733,133.888 C316.733,133.888 307.705,167.895 302.577,196.18 C295.173,237.077 281.161,244.95 268.088,240.248 C255.051,235.582 252.595,217.066 270.435,181.163 C286.506,148.796 295.751,128.603 297.448,124.921 C297.051,124.302 296.726,123.5 296.618,122.552 C295.39,118.761 295.065,111.872 292.826,108.41 C289.214,102.833 285.675,97.0373 292.356,97.9121 C297.448,98.5682 299.471,102.687 300.771,104.874 C301.06,104.509 301.349,104.254 301.674,104.072 C307.199,85.1912 311.677,80.963 314.314,82.8584 C316.192,84.207 313.7,92.0802 311.786,98.6776 C311.894,98.6047 312.039,98.5318 312.183,98.4953 C316.264,86.1389 319.081,79.9424 322.656,81.5827 C324.678,82.4939 323.739,87.6333 322.114,93.0279 C325.292,84.3164 331.721,85.2276 329.879,91.497 C329.157,93.9756 327.784,97.6934 326.484,101.12 C329.373,96.4906 333.996,96.7822 331.576,104.728 Z" id="Path" fill="#FFFFFF"></path>
            <path d="M228.904,149.343 C196.871,169.39 168.124,169.827 149.489,166.583 C132.227,163.594 119.767,156.888 115.723,154.263 C115.036,154.664 114.35,155.065 113.628,155.466 C116.95,157.762 129.951,165.344 148.731,168.661 C154.87,169.754 161.046,170.301 167.257,170.301 C173.577,170.301 179.897,169.754 186.181,168.624 C201.385,165.891 216.372,159.876 230.818,150.728 C230.168,150.217 229.554,149.78 228.904,149.343 Z" id="Path" fill="#FFFFFF"></path>
            <path d="M225.582,183.824 C230.674,176.607 236.957,172.561 244.289,171.759 C247.683,171.394 250.536,171.868 252.234,172.269 C251.548,171.394 250.861,170.52 250.175,169.681 C248.514,169.463 246.455,169.353 244.18,169.608 C238.655,170.192 230.638,172.889 223.812,182.584 C223.451,183.058 223.595,183.751 224.065,184.115 C224.245,184.261 224.462,184.334 224.679,184.334 C225.04,184.261 225.365,184.115 225.582,183.824 Z" id="Path" fill="#FFFFFF"></path>
            <path d="M225.979,209.412 C226.593,209.412 227.062,208.938 227.098,208.355 C227.17,205.147 228.434,197.857 232.876,191.004 C238.005,183.022 245.589,178.138 255.339,176.388 C254.87,175.732 254.4,175.076 253.895,174.42 C244.144,176.425 236.271,181.71 231.035,189.802 C226.629,196.581 225.004,204.017 224.895,208.282 C224.895,208.901 225.365,209.412 225.979,209.412 Z" id="Path" fill="#FFFFFF"></path>
            <path d="M72.9635,198.659 C68.377,198.477 63.9711,198.914 60.7209,199.607 C59.6374,200.7 58.554,201.794 57.5067,202.887 C61.5154,200.664 84.3394,197.893 93.7652,208.719 C93.9819,208.974 94.2708,209.083 94.5958,209.083 C94.8486,209.083 95.1014,209.011 95.3181,208.828 C95.7515,208.427 95.8237,207.735 95.4264,207.297 C89.3232,200.299 78.7418,198.878 72.9635,198.659 Z" id="Path" fill="#FFFFFF"></path>
            <path d="M91.5262,214.296 C78.778,204.564 62.8878,203.98 56.1706,204.272 C55.4122,205.074 54.6538,205.839 53.9315,206.605 C57.7957,206.277 76.25,205.402 90.2261,216.045 C90.4067,216.191 90.6595,216.264 90.8762,216.264 C91.2012,216.264 91.5262,216.118 91.7429,215.827 C92.1041,215.353 91.9957,214.66 91.5262,214.296 Z" id="Path" fill="#FFFFFF"></path>
            <path d="M36.4524,257.598 C36.4524,257.598 48.2978,222.242 81.6311,228.657 C114.964,235.072 160.576,248.85 160.576,248.85 L160.576,257.707 L36.4524,257.598 Z" id="Path" fill="#FFFFFF"></path>
            <path d="M160.576,258.801 L36.4884,258.655 C36.1273,258.655 35.8023,258.473 35.6217,258.181 C35.405,257.889 35.3689,257.525 35.4773,257.197 C35.5856,256.832 38.5831,248.048 45.7698,239.956 C52.4508,232.411 64.1518,224.137 81.8477,227.563 C114.856,233.906 160.432,247.647 160.901,247.793 C161.371,247.939 161.66,248.34 161.66,248.85 L161.66,257.707 C161.66,257.999 161.551,258.29 161.335,258.473 C161.118,258.691 160.865,258.801 160.576,258.801 Z M38.0413,256.504 L159.493,256.65 L159.493,249.688 C153.353,247.866 111.967,235.619 81.4504,229.75 C68.0521,227.162 56.604,231.099 47.431,241.414 C42.1583,247.283 39.197,253.698 38.0413,256.504 Z" id="Shape" fill="#211A55"></path>
            <path d="M301.277,106.66 C301.168,106.66 301.06,106.66 300.988,106.624 C300.41,106.441 300.085,105.858 300.229,105.275 C304.31,90.8409 308.283,82.8584 312.002,81.5462 C313.05,81.1817 314.097,81.3275 314.964,81.9836 C317.203,83.6238 315.794,88.909 313.303,97.4382 C312.544,100.026 311.822,102.468 311.425,104.364 C311.28,104.947 310.702,105.311 310.125,105.202 C309.547,105.056 309.186,104.473 309.294,103.89 C309.727,101.885 310.45,99.4065 311.208,96.7822 C312.111,93.7204 313.014,90.5857 313.519,88.0343 C314.242,84.2799 313.7,83.7332 313.7,83.6967 C313.375,83.478 313.086,83.4416 312.689,83.5509 C311.605,83.9154 307.705,86.6127 302.288,105.785 C302.179,106.368 301.746,106.66 301.277,106.66 Z" id="Path" fill="#211A55"></path>
            <path d="M274.588,242.544 C272.385,242.544 270.074,242.107 267.727,241.268 C263.212,239.665 260.034,236.566 258.229,232.083 C254.076,221.622 257.94,203.835 269.46,180.653 C286.253,146.864 295.571,126.306 296.582,124.083 C296.835,123.536 297.485,123.281 298.026,123.536 C298.568,123.791 298.821,124.447 298.568,124.994 C297.557,127.218 288.203,147.812 271.41,181.637 C257.217,210.213 257.506,224.392 260.251,231.245 C261.804,235.108 264.549,237.806 268.449,239.191 C273.397,240.977 277.983,240.649 282.064,238.28 C290.803,233.177 297.34,218.961 301.493,195.962 C306.585,167.968 315.578,133.924 315.65,133.596 C315.686,133.45 315.758,133.305 315.867,133.195 C315.939,133.122 317.564,131.045 322.078,126.452 C325.365,123.099 327.17,116.465 328.904,110.013 C329.446,108.045 329.951,106.15 330.493,104.364 C331.648,100.609 330.962,99.3701 330.601,99.1878 C330.059,98.9327 328.615,99.6617 327.387,101.63 L327.351,101.703 C327.062,102.213 326.412,102.395 325.87,102.104 C325.365,101.812 325.148,101.156 325.437,100.609 C325.473,100.573 325.509,100.5 325.509,100.464 C327.243,97.6934 329.698,96.3448 331.468,97.1831 C332.587,97.6934 334.249,99.4065 332.515,104.983 C331.974,106.733 331.468,108.592 330.926,110.56 C329.12,117.267 327.206,124.229 323.523,127.947 C319.839,131.701 318.07,133.742 317.6,134.325 C316.806,137.351 308.391,169.608 303.516,196.29 C299.218,219.945 292.32,234.671 283.039,240.102 C280.475,241.779 277.586,242.544 274.588,242.544 Z" id="Path" fill="#211A55"></path>
            <path d="M297.593,125.65 C297.268,125.65 296.979,125.504 296.762,125.249 C295.534,123.791 295.029,120.948 294.451,117.668 C293.873,114.533 293.223,110.997 291.923,108.993 C288.817,104.181 286.542,100.354 287.95,98.0942 C289.034,96.3446 291.67,96.6727 292.537,96.782 C297.774,97.4746 300.049,101.375 301.421,103.707 C301.71,104.181 301.927,104.582 302.143,104.874 C302.504,105.348 302.396,106.04 301.891,106.405 C301.385,106.769 300.735,106.66 300.374,106.15 C300.121,105.785 299.832,105.311 299.543,104.801 C298.207,102.541 296.401,99.4793 292.248,98.9325 C290.695,98.7138 289.973,98.969 289.792,99.2241 C289.034,100.463 292.356,105.566 293.765,107.753 C295.318,110.123 295.968,113.731 296.582,117.23 C297.087,119.964 297.593,122.771 298.424,123.791 C298.821,124.265 298.749,124.958 298.315,125.322 C298.099,125.577 297.846,125.65 297.593,125.65 Z" id="Path" fill="#211A55"></path>
            <path d="M323.09,110.815 C322.945,110.815 322.801,110.779 322.692,110.742 C322.151,110.524 321.862,109.868 322.115,109.321 C322.151,109.211 327.207,96.8185 328.868,91.1689 C329.374,89.4193 329.157,88.0342 328.362,87.779 C327.171,87.3781 324.679,89.0183 323.054,93.6839 C322.873,94.2671 322.223,94.5587 321.681,94.34 C321.103,94.1577 320.814,93.5016 321.031,92.9549 C323.054,87.123 326.593,84.8995 329.049,85.7014 C330.601,86.2117 332.046,88.1071 330.963,91.7885 C329.265,97.5475 324.354,109.649 324.137,110.159 C323.92,110.56 323.523,110.815 323.09,110.815 Z" id="Path" fill="#211A55"></path>
            <path d="M317.131,107.535 C316.986,107.535 316.842,107.498 316.697,107.425 C316.156,107.17 315.903,106.551 316.156,105.967 C316.192,105.894 318.647,100.208 320.562,94.3763 C324.101,83.5144 322.295,82.5667 322.223,82.5302 C321.789,82.3115 321.392,82.3115 320.995,82.4938 C318.178,83.7695 314.964,93.21 311.389,104.473 C311.208,105.056 310.594,105.348 310.016,105.165 C309.438,104.983 309.149,104.364 309.33,103.78 C314.169,88.5808 316.733,82.0199 320.128,80.489 C321.103,80.0516 322.114,80.0516 323.126,80.5255 C325.69,81.6919 325.509,86.1752 322.62,95.0689 C320.67,101.01 318.178,106.806 318.142,106.842 C317.961,107.316 317.564,107.535 317.131,107.535 Z" id="Path" fill="#211A55"></path>
            <path d="M153.642,123.062 L155.051,148.832 C155.051,148.832 152.667,162.756 171.808,160.168 C190.876,157.617 188.528,146.208 188.528,146.208 L182.642,114.169 L153.642,123.062 Z" id="Path" fill="#FFFFFF"></path>
            <path d="M167.402,161.59 C162.635,161.59 159.059,160.35 156.748,157.908 C153.389,154.409 153.859,149.671 154.003,148.796 L152.595,123.135 C152.559,122.625 152.884,122.188 153.353,122.042 L182.353,113.185 C182.642,113.112 182.967,113.14837 183.22,113.294 C183.472,113.44 183.653,113.731 183.725,114.023 L189.612,146.026 C189.648,146.172 190.37,149.889 187.662,153.753 C184.881,157.726 179.572,160.241 171.952,161.298 C170.327,161.48 168.81,161.59 167.402,161.59 Z M154.762,123.864 L156.134,148.796 C156.134,148.869 156.134,148.978 156.134,149.051 C156.134,149.088 155.448,153.462 158.301,156.414 C160.829,159.038 165.343,159.95 171.663,159.111 C178.633,158.164 183.4,155.94 185.856,152.514 C188.023,149.452 187.481,146.536 187.481,146.427 L181.811,115.59 L154.762,123.864 Z" id="Shape" fill="#211A55"></path>
            <path d="M189.973,81.6921 C189.973,81.6921 204.78,76.0789 205.358,91.6428 C205.935,107.207 189.973,103.161 189.973,103.161" id="Path" fill="#FFFFFF"></path>
            <path d="M194.271,104.765 C191.779,104.765 189.865,104.291 189.72,104.254 C189.142,104.108 188.781,103.525 188.926,102.942 C189.07,102.359 189.648,101.994 190.226,102.14 C190.298,102.14 197.16,103.817 201.241,100.5 C203.407,98.7139 204.419,95.7615 204.274,91.7156 C204.13,87.5603 202.902,84.6808 200.627,83.1499 C196.582,80.4162 190.406,82.7125 190.334,82.7125 C189.792,82.9312 189.142,82.6396 188.926,82.0564 C188.709,81.4732 188.998,80.8536 189.576,80.6349 C189.865,80.5255 196.835,77.9376 201.818,81.291 C204.708,83.2228 206.26,86.6855 206.441,91.5698 C206.622,96.3447 205.321,99.9167 202.577,102.14 C200.085,104.254 196.871,104.765 194.271,104.765 Z" id="Path" fill="#211A55"></path>
            <path d="M162.201,130.899 C146.167,130.899 133.166,117.777 133.166,101.594 L133.166,76.0423 C133.166,65.6906 141.508,57.2708 151.764,57.2708 L177.189,57.2708 C184.953,57.2708 191.273,63.6494 191.273,71.4861 L191.273,101.594 C191.273,117.777 178.272,130.899 162.201,130.899 Z" id="Path" fill="#FFFFFF"></path>
            <path d="M162.201,131.992 C145.589,131.992 132.082,118.36 132.082,101.593 L132.082,76.0422 C132.082,65.1073 140.894,56.1771 151.764,56.1771 L177.189,56.1771 C185.567,56.1771 192.357,63.0297 192.357,71.486 L192.357,101.593 C192.357,118.324 178.814,131.992 162.201,131.992 Z M151.764,58.3277 C142.122,58.3277 134.249,66.2737 134.249,76.0057 L134.249,101.557 C134.249,117.121 146.781,129.769 162.201,129.769 C177.622,129.769 190.154,117.121 190.154,101.557 L190.154,71.4495 C190.154,64.196 184.339,58.3277 177.153,58.3277 L151.764,58.3277 Z" id="Shape" fill="#211A55"></path>
            <path d="M198.026,115.481 C197.99,105.53 196.618,98.2767 196.257,96.4542 C196.257,96.3449 196.293,96.1991 196.293,96.0897 C196.293,93.7934 194.451,91.9344 192.176,91.9344 L192.176,96.0897 L192.284,100.245 C193.151,100.209 193.946,99.9169 194.596,99.4431 C195.932,107.826 198.568,132.831 187.445,154.081 C185.423,157.981 183.509,161.59 181.631,165.052 C171.158,184.772 164.224,197.821 164.404,209.448 C164.404,210.031 164.91,210.542 165.488,210.542 C166.102,210.542 166.571,210.031 166.571,209.448 C166.427,198.367 173.252,185.537 183.545,166.109 C185.387,162.61 187.301,159.038 189.359,155.102 C196.618,141.178 198.063,125.869 198.026,115.481 Z" id="Path" fill="#29C9EC"></path>
            <path d="M130.349,100.682 C130.854,100.974 131.396,101.156 132.01,101.193 L132.01,92.9185 C130.096,93.1007 128.579,94.5587 128.326,96.4541 C128.218,96.6363 128.146,96.855 128.146,97.0737 C128.146,98.7504 128.146,138.007 139.702,155.721 C151.512,173.873 155.159,184.225 155.99,201.793 C156.026,202.377 156.495,202.851 157.073,202.851 L157.109,202.851 C157.723,202.814 158.157,202.304 158.157,201.721 C157.326,183.642 153.606,173.071 141.508,154.518 C132.263,140.376 130.638,110.925 130.349,100.682 Z" id="Path" fill="#29C9EC"></path>
            <path d="M154.906,109.321 C153.606,109.321 152.92,108.337 152.848,108.227 C152.739,108.045 152.667,107.826 152.667,107.608 L152.27,83.9884 C152.27,83.3687 152.739,82.8949 153.353,82.8949 C153.353,82.8949 153.353,82.8949 153.389,82.8949 C153.967,82.8949 154.473,83.3687 154.473,83.9884 L154.834,107.134 C154.87,107.134 154.942,107.17 154.978,107.17 C155.123,107.17 155.99,106.952 157.326,104.51 C157.615,103.963 158.265,103.781 158.807,104.072 C159.348,104.364 159.529,105.02 159.24,105.567 C157.904,108.045 156.531,109.284 155.123,109.357 C154.978,109.321 154.942,109.321 154.906,109.321 Z" id="Path" fill="#211A55"></path>
            <path d="M157.687,119.891 C157.146,119.891 156.676,119.454 156.604,118.907 C156.532,118.324 156.965,117.777 157.579,117.704 C160.649,117.376 162.779,116.465 163.754,114.97 C164.116,114.424 164.296,113.84 164.368,113.33 C159.529,115.991 154.798,116.027 152.523,113.33 C152.126,112.856 152.198,112.164 152.631,111.799 C153.101,111.398 153.787,111.471 154.148,111.909 C155.882,113.95 160.432,113.367 164.693,110.56 C164.982,110.378 165.343,110.341 165.668,110.451 C165.993,110.56 166.246,110.815 166.318,111.143 C166.355,111.253 167.077,113.768 165.524,116.173 C164.152,118.251 161.551,119.49 157.759,119.855 C157.759,119.891 157.723,119.891 157.687,119.891 Z" id="Path" fill="#211A55"></path>
            <path d="M162.562,77.4637 C162.093,77.4637 161.623,77.1356 161.515,76.6253 C161.407,76.1515 161.587,75.7141 161.948,75.4589 C161.985,75.4225 162.021,75.386 162.057,75.3496 C165.74,71.6317 169.135,72.9804 171.338,74.8028 C171.808,75.1673 171.88,75.8599 171.519,76.3337 C171.158,76.8076 170.471,76.8805 170.002,76.516 C167.041,74.1103 165.018,75.4589 163.61,76.9169 C163.357,77.1721 163.176,77.3543 162.851,77.4637 C162.707,77.4637 162.635,77.4637 162.562,77.4637 Z" id="Path" fill="#211A55"></path>
            <path d="M138.655,77.2453 C138.15,77.2453 137.716,76.8808 137.608,76.3705 C137.499,75.9331 137.716,75.4957 138.077,75.2405 C138.113,75.2041 138.15,75.1676 138.222,75.0947 C138.944,74.3657 140.93,72.361 143.422,72.5068 C144.975,72.6162 146.384,73.491 147.648,75.1312 C148.009,75.605 147.936,76.2976 147.467,76.6621 C146.997,77.0266 146.311,76.9537 145.95,76.4798 C145.083,75.3499 144.181,74.7667 143.278,74.6938 C141.761,74.5844 140.352,76.006 139.739,76.6256 C139.45,76.9537 139.233,77.1359 138.872,77.2088 C138.8,77.2453 138.727,77.2453 138.655,77.2453 Z" id="Path" fill="#211A55"></path>
            <path d="M172.458,90.9502 C172.458,92.4811 171.663,93.7568 170.652,93.7568 C169.677,93.7568 168.846,92.5175 168.846,90.9502 C168.846,89.4193 169.641,88.1436 170.652,88.1436 C171.663,88.1436 172.458,89.3828 172.458,90.9502 Z" id="Path" fill="#211A55"></path>
            <path d="M146.203,91.6792 C146.203,93.2101 145.408,94.4858 144.397,94.4858 C143.422,94.4858 142.591,93.2465 142.591,91.6792 C142.591,90.1483 143.386,88.8726 144.397,88.8726 C145.408,88.8726 146.203,90.1119 146.203,91.6792 Z" id="Path" fill="#211A55"></path>
            <path d="M196.546,80.7443 C194.451,80.5985 192.501,80.9995 191.273,81.2911 L191.273,80.234 C190.876,80.3434 190.515,80.4527 190.19,80.5256 C169.316,75.8236 155.159,64.1962 155.159,64.1962 C144.867,79.5779 132.082,77.8283 132.082,77.8283 C132.082,77.8283 128.977,54.0632 153.173,46.8826 C185.965,37.1141 200.663,68.643 196.546,80.7443 Z" id="Path" fill="#211A55"></path>
            <path d="M204.924,97.6935846 C204.78,97.7298 205.394,92.3717 205.358,91.6792 C205.105,84.7538 200.121,80.7443 196.799,79.8331 C196.582,71.7412 194.776,64.3055 188.131,57.2343 C173.613,41.7797 156.712,48.2312 153.353,48.8509 C151.584,27.8194 161.299,10.7246 179.247,3.36175 C198.893,-4.69362 224.498,2.12246 236.958,19.5818 C246.853,33.4691 248.695,52.6416 242.772,68.5337 C238.51,79.9424 230.096,89.4558 218.864,94.1213 C214.422,95.9802 209.691,97.1831 204.924,97.6935846 Z" id="Path" fill="#211A55"></path>
            <path d="M172.241,106.113 C164.368,106.113 157.94,99.6252 157.94,91.6792 C157.94,83.7331 164.368,77.2451 172.241,77.2451 C180.114,77.2451 186.542,83.7331 186.542,91.6792 C186.542,99.6252 180.15,106.113 172.241,106.113 Z M172.241,79.4321 C165.56,79.4321 160.107,84.936 160.107,91.6792 C160.107,98.4223 165.56,103.926 172.241,103.926 C178.922,103.926 184.375,98.4223 184.375,91.6792 C184.375,84.936 178.922,79.4321 172.241,79.4321 Z" id="Shape" fill="#211A55"></path>
            <path d="M158.734,92.4082 L150.103,92.4082 C149.489,92.4082 149.02,91.9343 149.02,91.3147 C149.02,90.695 149.489,90.2212 150.103,90.2212 L158.734,90.2212 C159.348,90.2212 159.818,90.695 159.818,91.3147 C159.818,91.9343 159.348,92.4082 158.734,92.4082 Z" id="Path" fill="#211A55"></path>
            <path d="M183.798,86.2847 C183.436,86.2847 183.039,86.1025 182.859,85.738 C182.57,85.2277 182.75,84.5351 183.256,84.2435 L190.731,79.9789 C191.237,79.6873 191.923,79.8695 192.212,80.3798 C192.501,80.8901 192.32,81.5827 191.815,81.8743 L184.339,86.1389 C184.159,86.2483 183.978,86.2847 183.798,86.2847 Z" id="Path" fill="#211A55"></path>
            <path d="M136.452,106.113 C128.579,106.113 122.151,99.6252 122.151,91.6792 C122.151,83.7331 128.579,77.2451 136.452,77.2451 C144.325,77.2451 150.753,83.7331 150.753,91.6792 C150.753,99.6252 144.361,106.113 136.452,106.113 Z M136.452,79.4321 C129.771,79.4321 124.318,84.936 124.318,91.6792 C124.318,98.4223 129.771,103.926 136.452,103.926 C143.133,103.926 148.586,98.4223 148.586,91.6792 C148.586,84.936 143.169,79.4321 136.452,79.4321 Z" id="Shape" fill="#211A55"></path>
            <path d="M227.387,243.966 L219.876,243.966 L216.192,188.818 C215.939,184.954 212.617,181.819 208.789,181.819 L104.094,181.819 C100.266,181.819 97.3405,184.954 97.6294,188.818 L101.71,249.871 C101.963,253.734 105.286,256.869 109.114,256.869 L227.351,256.723 C229.518,256.723 231.25157,254.937 231.25157,252.787 L231.25157,247.939 C231.288,245.716 229.518,243.966 227.387,243.966 Z" id="Path" fill="#29C9EC"></path>
            <path d="M315,259.019 L1.34941,259.019 C0.735474,259.019 0.265991,258.545 0.265991,257.926 C0.265991,257.306 0.735474,256.832 1.34941,256.832 L315,256.832 C315.614,256.832 316.083,257.306 316.083,257.926 C316.083,258.545 315.578,259.019 315,259.019 Z" id="Path" fill="#211A55"></path>
            <path d="M196.799,80.9267 C196.185,80.9267 195.715,80.4529 195.715,79.8332 C195.715,73.7461 193.151,61.3168 183.581,53.225 C175.925,46.7734 165.632,44.6229 152.992,46.9192 C152.414,47.0286 151.837,46.6276 151.728,46.0444 C151.62,45.4612 152.017,44.878 152.595,44.7687 C165.885,42.363 176.791,44.6593 184.953,51.5483 C195.137,60.1504 197.846,73.3816 197.846,79.8332 C197.882,80.4164 197.376,80.9267 196.799,80.9267 Z" id="Path" fill="#FFFFFF"></path>
            <path d="M156.61,229.536 C161.453,230.196 165.828,227.368 166.384,223.218 C166.939,219.069 163.463,215.17 158.62,214.51 C153.778,213.85 149.402,216.679 148.847,220.828 C148.292,224.978 151.768,228.877 156.61,229.536 Z" id="Path" fill="#FFFFFF"></path>
        </g>
    </g>
</svg>